<?xml version="1.0" encoding="UTF-8"?>
<svg version="1.1" xmlns="http://www.w3.org/2000/svg" width="600" height="600">
<path d="M0 0 C198 0 396 0 600 0 C600 198 600 396 600 600 C402 600 204 600 0 600 C0 402 0 204 0 0 Z " fill="#FEFEFE" transform="translate(0,0)"/>
<path d="M0 0 C1.27617187 0.04253906 2.55234375 0.08507812 3.8671875 0.12890625 C20.99575034 0.79638147 38.07720269 2.95302902 54.9375 6 C55.82542236 6.15380127 56.71334473 6.30760254 57.62817383 6.46606445 C58.4405249 6.62163818 59.25287598 6.77721191 60.08984375 6.9375 C61.15513306 7.13666016 61.15513306 7.13666016 62.24194336 7.33984375 C64 8 64 8 66 11 C69.02929381 26.38866578 68.78568662 44.42935778 63 59 C62.55127407 60.57772799 62.10924381 62.15736724 61.671875 63.73828125 C60.08610294 69.11387315 57.73874526 73.8428876 55.0625 78.75 C54.63259766 79.56082031 54.20269531 80.37164062 53.75976562 81.20703125 C51.38424365 85.64085831 48.87110981 89.86986523 46 94 C52.91990301 92.39538481 57.49094199 89.37451694 62.8359375 84.7421875 C65 83 65 83 68 82 C68.7159552 80.69247165 69.37097234 79.35149784 70 78 C71.38955282 75.95299347 72.80025508 73.9408571 74.25 71.9375 C74.89884155 71.02991943 74.89884155 71.02991943 75.56079102 70.10400391 C78.11612403 66.54646562 80.72413717 63.03660507 83.38671875 59.55859375 C91.3139589 49.13927686 97.98802663 38.51655135 103.98535156 26.875 C105 25 105 25 107 22 C113.3066774 23.72827217 119.44105059 25.83697836 125.5625 28.125 C126.27728516 28.39070801 126.99207031 28.65641602 127.72851562 28.93017578 C132.87399657 30.87399657 132.87399657 30.87399657 134 32 C134.09870816 34.32567453 134.13179688 36.62163687 134.12304783 38.94783878 C134.12420167 39.68681193 134.12535552 40.42578507 134.12654433 41.18715134 C134.129218 43.69494431 134.12468271 46.20267469 134.12025452 48.71046448 C134.12069007 50.51386545 134.12156467 52.31726635 134.12284368 54.12066692 C134.12509185 59.10090333 134.12106298 64.08111844 134.11606562 69.06135213 C134.1117659 74.42266617 134.1132072 79.78397891 134.1139679 85.14529419 C134.11449344 94.44231516 134.11134351 103.73932913 134.10573006 113.03634834 C134.09761911 126.47844502 134.09500025 139.9205383 134.09374207 153.36263715 C134.09155091 175.1690875 134.08488909 196.97553411 134.07543945 218.78198242 C134.06626698 239.97078432 134.05919681 261.1595852 134.05493164 282.34838867 C134.05466364 283.6667695 134.05439565 284.98515032 134.05411953 286.34348208 C134.05204023 296.65336973 134.05008326 306.9632574 134.04816496 317.27314508 C134.03872331 367.84876681 134.0186069 418.42437921 134 469 C-8.56 469 -151.12 469 -298 469 C-290.36806022 461.36806022 -282.41213652 454.25765305 -274.015625 447.48046875 C-270.45329778 444.55031618 -266.97529204 441.53237122 -263.5 438.5 C-259.21797219 434.76581042 -254.91667953 431.07540724 -250.5 427.5 C-245.46651459 423.42242873 -240.57666691 419.19494085 -235.69189453 414.94189453 C-230.03580629 410.01987908 -224.32231652 405.16927867 -218.58837891 400.33837891 C-215.91091047 398.08232573 -213.23627043 395.82293394 -210.5625 393.5625 C-209.76392578 392.88767578 -209.76392578 392.88767578 -208.94921875 392.19921875 C-205.50770229 389.28716636 -202.08310044 386.35615553 -198.66577148 383.41577148 C-193.98600755 379.38932429 -189.2922906 375.39285776 -184.5 371.5 C-177.8895251 366.12838423 -171.45217378 360.55957367 -165 355 C-156.39373848 347.59210832 -147.74721451 340.2412838 -139 333 C-134.46899957 334.57833427 -132.19703641 338.15385022 -129.375 341.8125 C-128.84503418 342.48756592 -128.31506836 343.16263184 -127.76904297 343.8581543 C-126.17081203 345.89895384 -124.58368559 347.94790036 -123 350 C-122.56880859 350.556875 -122.13761719 351.11375 -121.69335938 351.6875 C-119.69403988 354.27143473 -117.7041927 356.86241864 -115.71875 359.45703125 C-112.37626087 363.82182423 -109.00027766 368.16054453 -105.625 372.5 C-105.02961426 373.26610596 -104.43422852 374.03221191 -103.82080078 374.8215332 C-103.25345215 375.55073975 -102.68610352 376.27994629 -102.1015625 377.03125 C-101.29960449 378.06378906 -101.29960449 378.06378906 -100.48144531 379.1171875 C-99.20899388 380.73438352 -97.9007828 382.32332945 -96.5859375 383.90625 C-95 386 -95 386 -95 388 C-89.21117134 383.91962221 -84.03233809 379.34715824 -78.83203125 374.546875 C-74.70661772 370.83684794 -70.38066694 367.40190622 -66 364 C-69.92519469 357.64738228 -74.43556004 351.86608826 -79.12207031 346.07177734 C-89.42338882 333.31611785 -99.18923285 320.13405404 -109 307 C-102.52338632 300.45472964 -95.72353932 294.35075067 -88.5625 288.5625 C-84.75912497 285.48663412 -81.09917348 282.31246834 -77.5 279 C-73.13230508 274.98394153 -68.63150764 271.20614546 -64.015625 267.48046875 C-60.4533015 264.55031924 -56.97521153 261.53245937 -53.5 258.5 C-49.11792637 254.67677716 -44.70940127 250.90845477 -40.1875 247.25 C-35.77514371 243.67559861 -31.53695822 239.94938669 -27.34375 236.12109375 C-25.20075688 234.18168497 -23.01655362 232.30670701 -20.8125 230.4375 C-17.45222394 227.51581419 -14.57542243 224.34551638 -11.703125 220.94921875 C-10.10910311 219.12486801 -8.44594218 217.47644646 -6.6875 215.8125 C3.14105104 206.02812223 14.16316769 192.40824575 14.625 177.9375 C13.9493488 168.14718156 12.88017457 159.25207589 6 152 C5.16339602 148.46767207 6.22446783 146.39074916 7.83203125 143.296875 C15.90119079 127.36781649 16.79965356 113.77896424 16 96 C15.86013672 96.61294922 15.72027344 97.22589844 15.57617188 97.85742188 C12.21049507 112.32658552 8.30401947 125.5439708 0 138 C-2.1875 138.5625 -2.1875 138.5625 -5 138 C-6.49609375 136.828125 -6.49609375 136.828125 -8.125 135.3125 C-18.30544544 125.9712236 -31.84284164 124.85905845 -45 124 C-46.54249859 119.12169147 -47.25469251 114.75640386 -47.625 109.625 C-48.48385347 100.74491823 -52.02580568 93.56685977 -56.1171875 85.74853516 C-57.22586998 83.55263251 -58.14106594 81.30391168 -59 79 C-59.845625 79.825 -60.69125 80.65 -61.5625 81.5 C-64.0049527 83.49267703 -65.03136115 84.00603099 -68.25 84.625 C-74.39272104 83.60121316 -79.75297705 81.63943445 -83.87890625 76.79296875 C-85.02462795 75.10495649 -86.14096638 73.3967078 -87.23046875 71.671875 C-89.686327 67.96369169 -92.65030075 64.84790056 -95.66015625 61.5859375 C-99.62168879 57.20774962 -103.30303536 52.60176669 -107 48 C-107.76699219 47.17113281 -108.53398437 46.34226563 -109.32421875 45.48828125 C-111 43 -111 43 -111.2265625 40.5078125 C-109.29666348 36.561968 -106.10105974 35.02826449 -102.375 32.875 C-101.58899414 32.40924561 -100.80298828 31.94349121 -99.99316406 31.46362305 C-93.38850074 27.63268766 -86.60958998 24.16166491 -79.75 20.8125 C-78.77466309 20.33087402 -77.79932617 19.84924805 -76.79443359 19.35302734 C-67.87412517 15.11994962 -67.87412517 15.11994962 -63 16 C-45.04144983 25.85336381 -33.84720089 62.28112463 -25 80 C-24.89453857 79.20416504 -24.78907715 78.40833008 -24.68041992 77.58837891 C-24.19114365 73.93274445 -23.68941211 70.27892014 -23.1875 66.625 C-23.02185547 65.37332031 -22.85621094 64.12164062 -22.68554688 62.83203125 C-21.91379036 57.26955979 -21.1054125 51.93420874 -19.36328125 46.5859375 C-16.76236767 38.4344569 -18.21538815 32.24571156 -21.3125 24.4375 C-21.62123047 23.62603516 -21.92996094 22.81457031 -22.24804688 21.97851562 C-23.64841863 18.32575646 -25.11395262 14.75556611 -26.79296875 11.22265625 C-28.05830777 7.84432392 -28.12320138 6.36960414 -27 3 C-17.80605281 0.88991376 -9.46216393 -0.4674081 0 0 Z " fill="#5F83A1" transform="translate(466,131)"/>
<path d="M0 0 C0 87.78 0 175.56 0 266 C-102.63 266 -205.26 266 -311 266 C-307.48244918 261.77893901 -304.96127797 258.94156367 -300.8125 255.6875 C-297.10337971 252.72318298 -293.50502877 249.70316027 -290 246.5 C-285.65432828 242.54061021 -281.15448379 238.8155345 -276.5859375 235.1171875 C-274.34870142 233.28549271 -272.16412739 231.41679855 -270 229.5 C-266.93990838 226.78963314 -263.80225584 224.19706425 -260.625 221.625 C-256.1256439 217.96849849 -251.8153054 214.15445555 -247.53125 210.25 C-244.9115519 207.92137947 -242.2248469 205.70437053 -239.5 203.5 C-234.97400672 199.83579669 -230.62436929 196.02241167 -226.31640625 192.10546875 C-219.5824922 185.98476104 -212.63686896 180.10243234 -205.72265625 174.1875 C-203.26836295 172.08768 -200.8179562 169.98347363 -198.37109375 167.875 C-193.04632439 163.29054957 -187.71024622 158.73599061 -182.25 154.3125 C-177.86848205 150.75732096 -173.68289319 147.03230463 -169.51171875 143.234375 C-166.99848768 140.99865467 -164.42688521 138.86622318 -161.8125 136.75 C-155.37288007 131.53481485 -149.14544597 126.08668248 -142.89648438 120.64648438 C-138.20215479 116.57097475 -133.47101259 112.53816153 -128.74707031 108.49707031 C-126.96164376 106.96713241 -125.17963855 105.43329199 -123.3984375 103.8984375 C-118.06449936 99.30622865 -112.71957787 94.74355043 -107.25 90.3125 C-102.86848205 86.75732096 -98.68289319 83.03230463 -94.51171875 79.234375 C-91.99848768 76.99865467 -89.42688521 74.86622318 -86.8125 72.75 C-80.37451094 67.53613562 -74.14836434 62.08958747 -67.90087891 56.65087891 C-59.95633072 49.75118267 -51.93994734 42.93468727 -43.8984375 36.1484375 C-39.87096844 32.74659471 -35.87082583 29.31391441 -31.875 25.875 C-27.7131582 22.29373398 -23.51730831 18.7684187 -19.25 15.3125 C-14.72038683 11.64056506 -10.38353505 7.7962084 -6.09375 3.84765625 C-1.73361522 0 -1.73361522 0 0 0 Z " fill="#94CBF9" transform="translate(600,334)"/>
<path d="M0 0 C1.27617187 0.04253906 2.55234375 0.08507812 3.8671875 0.12890625 C20.99575034 0.79638147 38.07720269 2.95302902 54.9375 6 C55.82542236 6.15380127 56.71334473 6.30760254 57.62817383 6.46606445 C58.4405249 6.62163818 59.25287598 6.77721191 60.08984375 6.9375 C61.15513306 7.13666016 61.15513306 7.13666016 62.24194336 7.33984375 C64 8 64 8 66 11 C69.02929381 26.38866578 68.78568662 44.42935778 63 59 C62.55127407 60.57772799 62.10924381 62.15736724 61.671875 63.73828125 C60.08610294 69.11387315 57.73874526 73.8428876 55.0625 78.75 C54.63259766 79.56082031 54.20269531 80.37164062 53.75976562 81.20703125 C51.38424365 85.64085831 48.87110981 89.86986523 46 94 C52.91990301 92.39538481 57.49094199 89.37451694 62.8359375 84.7421875 C65 83 65 83 68 82 C68.7159552 80.69247165 69.37097234 79.35149784 70 78 C71.38955282 75.95299347 72.80025508 73.9408571 74.25 71.9375 C74.89884155 71.02991943 74.89884155 71.02991943 75.56079102 70.10400391 C78.11612403 66.54646562 80.72413717 63.03660507 83.38671875 59.55859375 C91.3139589 49.13927686 97.98802663 38.51655135 103.98535156 26.875 C105 25 105 25 107 22 C113.3066774 23.72827217 119.44105059 25.83697836 125.5625 28.125 C126.27728516 28.39070801 126.99207031 28.65641602 127.72851562 28.93017578 C132.87399657 30.87399657 132.87399657 30.87399657 134 32 C134.07271741 34.35313555 134.08370868 36.70833668 134.0625 39.0625 C134.05347656 40.35285156 134.04445313 41.64320313 134.03515625 42.97265625 C134.01775391 44.47119141 134.01775391 44.47119141 134 46 C127.57683726 43.93152386 121.3492961 41.56948886 115.11328125 38.98828125 C111.71610682 37.90988083 109.52357369 37.38015618 106 38 C104.14681115 39.94521364 102.90434973 41.57252423 101.5 43.8125 C100.63640993 45.10310136 99.77038689 46.39207701 98.90234375 47.6796875 C98.43940918 48.37674805 97.97647461 49.07380859 97.49951172 49.79199219 C94.80507329 53.7595111 91.9248672 57.59030748 89.0625 61.4375 C85.67198981 66.00036556 82.28605185 70.5584091 79.046875 75.23046875 C67.91190349 91.20724524 51.01753349 103.68018745 32 109 C32.52603162 104.22036786 34.78739383 100.85440622 37.375 96.9375 C52.91955823 72.49697672 62.89919712 50.58573452 61 21 C60.35933594 20.94448975 59.71867187 20.88897949 59.05859375 20.83178711 C53.94338405 20.35962124 49.02432182 19.66442513 44 18.5625 C23.98350321 14.57145064 3.32207749 14.6732785 -17 15 C-16.80776855 15.61407715 -16.61553711 16.2281543 -16.41748047 16.86083984 C-15.54602574 19.69213724 -14.71048539 22.53289029 -13.875 25.375 C-13.57207031 26.34050781 -13.26914062 27.30601562 -12.95703125 28.30078125 C-10.94209601 35.28276615 -11.09860148 40.05453536 -13 47 C-13.31370476 48.53988683 -13.61192018 50.08301068 -13.89453125 51.62890625 C-14.11737793 52.81685791 -14.11737793 52.81685791 -14.34472656 54.02880859 C-17.28566006 69.95835342 -19.63549387 85.97682204 -22 102 C-24.16468462 98.75297307 -25.31524574 95.49981431 -26.59765625 91.85546875 C-29.83834546 82.95180374 -34.02049739 74.6795566 -38.4375 66.3125 C-39.1707402 64.90602528 -39.90316377 63.49912451 -40.63476562 62.09179688 C-49.30300105 45.25120999 -49.30300105 45.25120999 -59 29 C-63.95979221 29.51776341 -67.74762941 30.56149392 -72.1953125 32.80078125 C-73.88720703 33.64866211 -73.88720703 33.64866211 -75.61328125 34.51367188 C-76.77214844 35.10728516 -77.93101562 35.70089844 -79.125 36.3125 C-80.29160156 36.89451172 -81.45820313 37.47652344 -82.66015625 38.07617188 C-87.86242723 40.70710273 -92.52995404 43.22131978 -97 47 C-96.64570323 52.34481978 -93.61608516 55.21115028 -90.1875 59 C-89.1178221 60.20774248 -88.04879907 61.41606532 -86.98046875 62.625 C-86.21669922 63.48581177 -86.21669922 63.48581177 -85.4375 64.36401367 C-80.09534948 70.44379469 -80.09534948 70.44379469 -79.625 73.1875 C-79.41875 73.785625 -79.2125 74.38375 -79 75 C-74.69179771 77.0515249 -70.71497996 77.67356857 -66 77 C-64.18822236 75.57379518 -62.74863811 74.07236072 -61.26171875 72.3125 C-60.84535156 71.879375 -60.42898438 71.44625 -60 71 C-59.34 71 -58.68 71 -58 71 C-42.04965201 98.61182464 -42.04965201 98.61182464 -42 111 C-41.3090625 110.82210937 -40.618125 110.64421875 -39.90625 110.4609375 C-28.0423608 108.57929916 -14.59519094 113.71752919 -4.875 120.25 C-4.19179688 120.75015625 -3.50859375 121.2503125 -2.8046875 121.765625 C-0.91068734 123.18231083 -0.91068734 123.18231083 2 124 C4.18626773 116.84485282 6.24812629 109.66346279 8.1875 102.4375 C8.59645508 100.97280273 8.59645508 100.97280273 9.01367188 99.47851562 C11.30486356 90.89372473 11.47544296 83.69794259 10 74.9375 C9.814375 73.81214844 9.62875 72.68679687 9.4375 71.52734375 C9.293125 70.69332031 9.14875 69.85929687 9 69 C9.66 68.67 10.32 68.34 11 68 C12.45121767 71.37121356 13.89809149 74.74416143 15.3359375 78.12109375 C16.35961971 80.52134978 17.40659231 82.90461411 18.4765625 85.28515625 C21.14557594 91.33335923 22.82428146 96.4007926 23 103 C23.12761719 104.83304688 23.12761719 104.83304688 23.2578125 106.703125 C23.72959256 115.93109947 22.4252061 123.40222485 19.04663086 132.02319336 C16.93880623 137.40731828 16.93880623 137.40731828 18 143 C19.26054367 145.22978296 19.26054367 145.22978296 20.8125 147.4375 C25.92072686 155.6524129 28.35910143 165.38652146 29 175 C29.09474609 176.12921875 29.09474609 176.12921875 29.19140625 177.28125 C29.54488581 184.48767198 27.61487349 190.34543031 25 197 C24.55269531 198.16273438 24.10539062 199.32546875 23.64453125 200.5234375 C19.03408196 211.91977595 13.87857922 219.96772162 4.14453125 227.53125 C0.55569327 230.34882218 -2.8782581 233.31024099 -6.3125 236.3125 C-7.59873237 237.43255121 -8.88519164 238.5523419 -10.171875 239.671875 C-10.80931641 240.22681641 -11.44675781 240.78175781 -12.10351562 241.35351562 C-16.79784521 245.42902525 -21.52898741 249.46183847 -26.25292969 253.50292969 C-28.03835624 255.03286759 -29.82036145 256.56670801 -31.6015625 258.1015625 C-36.93550064 262.69377135 -42.28042213 267.25644957 -47.75 271.6875 C-52.13151795 275.24267904 -56.31710681 278.96769537 -60.48828125 282.765625 C-63.87834383 285.78135718 -67.40299579 288.61524446 -70.9296875 291.46875 C-75.25360085 295.03350299 -79.47608409 298.71096812 -83.69799805 302.39550781 C-87.42581477 305.64716727 -91.18783113 308.84751732 -95 312 C-92.24780761 317.09545053 -89.18642926 321.48371869 -85.5 325.9375 C-79.60848593 333.17431323 -73.98774375 340.58916084 -68.42675781 348.08154297 C-65.96196171 351.39577427 -63.48051994 354.69752941 -61 358 C-51.88639329 353.6186195 -44.28936399 345.55663171 -36.69238281 338.94238281 C-32.63352015 335.40909872 -28.55166691 331.90620852 -24.4375 328.4375 C-19.96316606 324.66427057 -15.50465296 320.87358129 -11.0625 317.0625 C-10.48177734 316.56427734 -9.90105469 316.06605469 -9.30273438 315.55273438 C-7.53488238 314.03547491 -5.76737386 312.51781639 -4 311 C3.32117664 304.71259127 10.65291402 298.43956092 18.03100586 292.21899414 C22.26284733 288.64283517 26.44683517 285.01362146 30.625 281.375 C35.8224297 276.84891048 41.0996563 272.44592075 46.45703125 268.109375 C49.0360076 265.97013194 51.52256353 263.75575063 54 261.5 C58.19729034 257.67829137 62.53710231 254.08525811 66.94921875 250.515625 C70.52056141 247.57075346 74.0122255 244.54291873 77.5 241.5 C81.88210961 237.67681607 86.29059652 233.90845656 90.8125 230.25 C94.30235888 227.42512161 97.68010514 224.52282421 101 221.5 C105.18573333 217.68881424 109.51184518 214.1039675 113.9140625 210.546875 C118.38678214 206.89360766 122.71294025 203.06578813 127.04956055 199.25292969 C127.66355713 198.71571289 128.27755371 198.17849609 128.91015625 197.625 C129.45808838 197.14289063 130.00602051 196.66078125 130.57055664 196.1640625 C132 195 132 195 134 194 C135.02927663 201.47878066 135.02927663 201.47878066 132.77099609 204.81640625 C130.99070261 206.51580102 129.14920798 208.01373652 127.1875 209.5 C126.50405518 210.05333008 125.82061035 210.60666016 125.11645508 211.17675781 C123.0950206 212.80791651 121.04949485 214.40435121 119 216 C117.05863142 217.57858758 115.12060255 219.16130078 113.1875 220.75 C112.31480469 221.45640625 111.44210937 222.1628125 110.54296875 222.890625 C107.9639924 225.02986806 105.47743647 227.24424937 103 229.5 C99.68010514 232.52282421 96.30235888 235.42512161 92.8125 238.25 C86.37451094 243.46386438 80.14836434 248.91041253 73.90087891 254.34912109 C65.95394318 261.25089085 57.93322101 268.06687286 49.8918457 274.8581543 C45.93513994 278.20217796 41.99473788 281.56474685 38.0625 284.9375 C37.48330811 285.43419189 36.90411621 285.93088379 36.30737305 286.44262695 C33.33243959 288.99510418 30.3602292 291.55069982 27.390625 294.109375 C22.05879366 298.6983591 16.71670329 303.25877834 11.25 307.6875 C6.86848205 311.24267904 2.68289319 314.96769537 -1.48828125 318.765625 C-4.00151232 321.00134533 -6.57311479 323.13377682 -9.1875 325.25 C-15.62711993 330.46518515 -21.85455403 335.91331752 -28.10351562 341.35351562 C-32.79784521 345.42902525 -37.52898741 349.46183847 -42.25292969 353.50292969 C-44.03835624 355.03286759 -45.82036145 356.56670801 -47.6015625 358.1015625 C-52.93550064 362.69377135 -58.28042213 367.25644957 -63.75 371.6875 C-68.18835039 375.291623 -72.45390422 379.0487572 -76.68359375 382.89453125 C-84.02642619 389.56870778 -91.61469221 395.96875313 -99.15332031 402.41943359 C-101.52465348 404.449049 -103.8945451 406.48034202 -106.26416016 408.51196289 C-107.42245898 409.50490682 -108.58098812 410.49758216 -109.73974609 411.48999023 C-112.71110274 414.03514473 -115.6788558 416.58431726 -118.640625 419.140625 C-123.7819774 423.57251507 -128.92009749 427.9818738 -134.25 432.1875 C-138.47837536 435.52605411 -142.45483097 439.08476754 -146.43359375 442.71484375 C-149.06404749 445.05702858 -151.76155847 447.28536726 -154.5 449.5 C-158.97120755 453.11864679 -163.27345192 456.87793615 -167.515625 460.76171875 C-168.74539063 461.86966797 -168.74539063 461.86966797 -170 463 C-170.44729241 463.49735468 -170.89458483 463.99470936 -171.35543156 464.50713539 C-174.8308693 468.05901797 -177.44416834 469.41362011 -182.43540955 469.7215271 C-184.5909455 469.73882614 -186.74690393 469.72317738 -188.90209961 469.68115234 C-190.08330383 469.6820285 -191.26450806 469.68290466 -192.48150635 469.68380737 C-195.70269741 469.68035625 -198.92230129 469.65038041 -202.14317775 469.60836363 C-205.51567411 469.57072013 -208.88820548 469.56732065 -212.26087952 469.56021118 C-218.63936001 469.5416019 -225.01721957 469.49241932 -231.39542729 469.43211424 C-238.66017598 469.3649259 -245.92495516 469.33202936 -253.18993747 469.30194163 C-268.12697027 469.23931573 -283.06342288 469.13385841 -298 469 C-290.38875832 461.35862421 -282.40663223 454.2532103 -274.015625 447.48046875 C-270.45329778 444.55031618 -266.97529204 441.53237122 -263.5 438.5 C-259.21797219 434.76581042 -254.91667953 431.07540724 -250.5 427.5 C-245.46651459 423.42242873 -240.57666691 419.19494085 -235.69189453 414.94189453 C-230.03580629 410.01987908 -224.32231652 405.16927867 -218.58837891 400.33837891 C-215.91091047 398.08232573 -213.23627043 395.82293394 -210.5625 393.5625 C-209.76392578 392.88767578 -209.76392578 392.88767578 -208.94921875 392.19921875 C-205.50770229 389.28716636 -202.08310044 386.35615553 -198.66577148 383.41577148 C-193.98600755 379.38932429 -189.2922906 375.39285776 -184.5 371.5 C-177.8895251 366.12838423 -171.45217378 360.55957367 -165 355 C-156.39373848 347.59210832 -147.74721451 340.2412838 -139 333 C-134.46899957 334.57833427 -132.19703641 338.15385022 -129.375 341.8125 C-128.84503418 342.48756592 -128.31506836 343.16263184 -127.76904297 343.8581543 C-126.17081203 345.89895384 -124.58368559 347.94790036 -123 350 C-122.56880859 350.556875 -122.13761719 351.11375 -121.69335938 351.6875 C-119.69403988 354.27143473 -117.7041927 356.86241864 -115.71875 359.45703125 C-112.37626087 363.82182423 -109.00027766 368.16054453 -105.625 372.5 C-105.02961426 373.26610596 -104.43422852 374.03221191 -103.82080078 374.8215332 C-103.25345215 375.55073975 -102.68610352 376.27994629 -102.1015625 377.03125 C-101.29960449 378.06378906 -101.29960449 378.06378906 -100.48144531 379.1171875 C-99.20899388 380.73438352 -97.9007828 382.32332945 -96.5859375 383.90625 C-95 386 -95 386 -95 388 C-89.21117134 383.91962221 -84.03233809 379.34715824 -78.83203125 374.546875 C-74.70661772 370.83684794 -70.38066694 367.40190622 -66 364 C-69.92519469 357.64738228 -74.43556004 351.86608826 -79.12207031 346.07177734 C-89.42338882 333.31611785 -99.18923285 320.13405404 -109 307 C-102.52338632 300.45472964 -95.72353932 294.35075067 -88.5625 288.5625 C-84.75912497 285.48663412 -81.09917348 282.31246834 -77.5 279 C-73.13230508 274.98394153 -68.63150764 271.20614546 -64.015625 267.48046875 C-60.4533015 264.55031924 -56.97521153 261.53245937 -53.5 258.5 C-49.11792637 254.67677716 -44.70940127 250.90845477 -40.1875 247.25 C-35.77514371 243.67559861 -31.53695822 239.94938669 -27.34375 236.12109375 C-25.20075688 234.18168497 -23.01655362 232.30670701 -20.8125 230.4375 C-17.45222394 227.51581419 -14.57542243 224.34551638 -11.703125 220.94921875 C-10.10910311 219.12486801 -8.44594218 217.47644646 -6.6875 215.8125 C3.14105104 206.02812223 14.16316769 192.40824575 14.625 177.9375 C13.9493488 168.14718156 12.88017457 159.25207589 6 152 C5.16339602 148.46767207 6.22446783 146.39074916 7.83203125 143.296875 C15.90119079 127.36781649 16.79965356 113.77896424 16 96 C15.86013672 96.61294922 15.72027344 97.22589844 15.57617188 97.85742188 C12.21049507 112.32658552 8.30401947 125.5439708 0 138 C-2.1875 138.5625 -2.1875 138.5625 -5 138 C-6.49609375 136.828125 -6.49609375 136.828125 -8.125 135.3125 C-18.30544544 125.9712236 -31.84284164 124.85905845 -45 124 C-46.54249859 119.12169147 -47.25469251 114.75640386 -47.625 109.625 C-48.48385347 100.74491823 -52.02580568 93.56685977 -56.1171875 85.74853516 C-57.22586998 83.55263251 -58.14106594 81.30391168 -59 79 C-59.845625 79.825 -60.69125 80.65 -61.5625 81.5 C-64.0049527 83.49267703 -65.03136115 84.00603099 -68.25 84.625 C-74.39272104 83.60121316 -79.75297705 81.63943445 -83.87890625 76.79296875 C-85.02462795 75.10495649 -86.14096638 73.3967078 -87.23046875 71.671875 C-89.686327 67.96369169 -92.65030075 64.84790056 -95.66015625 61.5859375 C-99.62168879 57.20774962 -103.30303536 52.60176669 -107 48 C-107.76699219 47.17113281 -108.53398437 46.34226563 -109.32421875 45.48828125 C-111 43 -111 43 -111.2265625 40.5078125 C-109.29666348 36.561968 -106.10105974 35.02826449 -102.375 32.875 C-101.58899414 32.40924561 -100.80298828 31.94349121 -99.99316406 31.46362305 C-93.38850074 27.63268766 -86.60958998 24.16166491 -79.75 20.8125 C-78.77466309 20.33087402 -77.79932617 19.84924805 -76.79443359 19.35302734 C-67.87412517 15.11994962 -67.87412517 15.11994962 -63 16 C-45.04144983 25.85336381 -33.84720089 62.28112463 -25 80 C-24.89453857 79.20416504 -24.78907715 78.40833008 -24.68041992 77.58837891 C-24.19114365 73.93274445 -23.68941211 70.27892014 -23.1875 66.625 C-23.02185547 65.37332031 -22.85621094 64.12164062 -22.68554688 62.83203125 C-21.91379036 57.26955979 -21.1054125 51.93420874 -19.36328125 46.5859375 C-16.76236767 38.4344569 -18.21538815 32.24571156 -21.3125 24.4375 C-21.62123047 23.62603516 -21.92996094 22.81457031 -22.24804688 21.97851562 C-23.64841863 18.32575646 -25.11395262 14.75556611 -26.79296875 11.22265625 C-28.05830777 7.84432392 -28.12320138 6.36960414 -27 3 C-17.80605281 0.88991376 -9.46216393 -0.4674081 0 0 Z " fill="#050506" transform="translate(466,131)"/>
<path d="M0 0 C0 43.89 0 87.78 0 133 C-51.48 133 -102.96 133 -156 133 C-152.89979453 129.12474317 -150.53337717 126.61927279 -146.75 123.625 C-142.56049561 120.27676155 -138.51126623 116.83881166 -134.55859375 113.21484375 C-133 112 -133 112 -131 112 C-131 111.34 -131 110.68 -131 110 C-129.53309441 108.6672812 -127.99677499 107.41086131 -126.4375 106.1875 C-121.69289416 102.39547911 -117.07213937 98.49800431 -112.5 94.5 C-108.11837546 90.6762876 -103.70937453 86.90843314 -99.1875 83.25 C-94.74897785 79.6581706 -90.49474511 75.90403857 -86.2890625 72.04296875 C-79.51816444 66 -79.51816444 66 -77 66 C-77 65.34 -77 64.68 -77 64 C-75.51261765 62.64617851 -73.95569449 61.36860114 -72.375 60.125 C-67.75944863 56.43375155 -63.22777949 52.66974063 -58.75 48.8125 C-58.18458496 48.32604004 -57.61916992 47.83958008 -57.03662109 47.33837891 C-56.48312988 46.86190918 -55.92963867 46.38543945 -55.359375 45.89453125 C-54.81345703 45.42611816 -54.26753906 44.95770508 -53.70507812 44.47509766 C-52.49287796 43.42639871 -51.28930795 42.36768776 -50.09179688 41.30224609 C-49.46853516 40.75262207 -48.84527344 40.20299805 -48.203125 39.63671875 C-47.63754883 39.13229248 -47.07197266 38.62786621 -46.48925781 38.1081543 C-45 37 -45 37 -43 37 C-43 36.34 -43 35.68 -43 35 C-41.33984375 33.51171875 -41.33984375 33.51171875 -38.9375 31.6875 C-34.39903515 28.14903588 -30.02195472 24.47277541 -25.6875 20.6875 C-20.7535518 16.3873792 -15.80612304 12.10577811 -10.8125 7.875 C-10.28422607 7.42600342 -9.75595215 6.97700684 -9.21166992 6.5144043 C-1.50714609 0 -1.50714609 0 0 0 Z " fill="#7F7F7F" transform="translate(600,467)"/>
<path d="M0 0 C3.6808758 3.42911778 6.53881233 7.27389969 9.5 11.3125 C15.05422875 18.80739402 20.82824173 26.09935938 26.68408203 33.359375 C29.5008366 36.8711729 32.25430404 40.43252884 35 44 C33.70118388 46.91696199 32.41209595 48.7864651 29.98046875 50.84765625 C29.37710693 51.36465088 28.77374512 51.88164551 28.15209961 52.41430664 C27.50378174 52.95821045 26.85546387 53.50211426 26.1875 54.0625 C25.51533447 54.63540771 24.84316895 55.20831543 24.15063477 55.79858398 C22.10584502 57.53890745 20.05366959 59.27017057 18 61 C16.86942502 61.95790076 15.73919142 62.91620466 14.609375 63.875 C12.49379127 65.66883669 10.37479259 67.45853124 8.25390625 69.24609375 C4.77485743 72.18322806 1.32575821 75.15473899 -2.125 78.125 C-6.18620876 81.61823856 -10.27518971 85.06448707 -14.4375 88.4375 C-20.7739342 93.58469142 -26.90749489 98.95893937 -33.06396484 104.31835938 C-36.24105165 107.07797778 -39.43145832 109.82195504 -42.625 112.5625 C-43.19259033 113.05081299 -43.76018066 113.53912598 -44.3449707 114.04223633 C-45.8910356 115.36806274 -47.44529007 116.6843217 -49 118 C-49.70903976 118.70340515 -50.41807953 119.4068103 -51.14860535 120.13153076 C-54.95351613 122.62482251 -58.24947817 122.53265065 -62.64575195 122.45410156 C-63.93431847 122.45497772 -63.93431847 122.45497772 -65.24891663 122.45587158 C-68.07912055 122.4530921 -70.90826206 122.42200683 -73.73828125 122.390625 C-75.70411097 122.38316212 -77.66994814 122.37746941 -79.63578796 122.37347412 C-84.80299517 122.35822153 -89.9697507 122.31894275 -95.13677979 122.2746582 C-100.41208791 122.23369754 -105.68746922 122.21546139 -110.96289062 122.1953125 C-121.3087919 122.1524483 -131.65435835 122.08420133 -142 122 C-134.04087386 114.00917749 -125.76084207 106.52229028 -116.984375 99.4453125 C-109.04906743 92.94334582 -101.33916486 86.1514345 -93.75 79.25 C-89.49660783 75.39227222 -85.08889461 71.75827097 -80.62109375 68.15234375 C-77.51247182 65.59966017 -74.52304488 62.93277088 -71.55859375 60.21484375 C-70 59 -70 59 -68 59 C-68 58.34 -68 57.68 -68 57 C-66.49212839 55.62508701 -64.91460239 54.32635538 -63.3125 53.0625 C-62.30832031 52.25941406 -61.30414063 51.45632813 -60.26953125 50.62890625 C-59.73408691 50.20109863 -59.19864258 49.77329102 -58.64697266 49.33251953 C-55.89090532 47.1026625 -53.197958 44.79951517 -50.5 42.5 C-46.3276785 38.96078887 -42.14843807 35.43072825 -37.9375 31.9375 C-36.65166016 30.86822266 -36.65166016 30.86822266 -35.33984375 29.77734375 C-33.27593406 28.20959932 -31.35877675 27.05137162 -29 26 C-29 25.34 -29 24.68 -29 24 C-27.51261765 22.64617851 -25.95569449 21.36860114 -24.375 20.125 C-19.0711934 15.88745802 -13.90386563 11.51963462 -8.77294922 7.07470703 C-5.91734453 4.60965429 -3.06103077 2.21116227 0 0 Z " fill="#6083A0" transform="translate(332,478)"/>
<path d="M0 0 C0.54527344 0.98097656 1.09054687 1.96195313 1.65234375 2.97265625 C2.41398587 4.33598031 3.17571116 5.69925791 3.9375 7.0625 C4.338479 7.78477783 4.73945801 8.50705566 5.15258789 9.2512207 C7.1847941 12.8838635 9.25883655 16.45705166 11.53125 19.9453125 C16.23971689 27.23146231 18.5319168 32.40760011 19.359375 41.2265625 C20.13377821 44.57916176 21.17170087 45.77595701 23.8125 47.9375 C26.66651852 49.66955834 27.46112337 50.09580029 30.8125 49.5 C31.8953125 48.7575 31.8953125 48.7575 33 48 C36 46 36 46 38.6875 46.375 C39.450625 46.58125 40.21375 46.7875 41 47 C45.26553158 63.9859561 44.24250187 80.67153646 43 98 C42.29617188 98.12375 41.59234375 98.2475 40.8671875 98.375 C31.69291061 100.29129805 21.76439888 104.23560112 15 111 C13.01171875 110.8828125 13.01171875 110.8828125 11 110 C9.83203125 108.2421875 9.83203125 108.2421875 8.8125 105.875 C-0.37675814 86.13511215 -12.30652131 69.78023419 -33 61.125 C-38.46331144 59.29997139 -44.30990654 58.73728345 -50 58 C-51.66851467 47.51219348 -42.38406927 37.93270356 -36.625 29.875 C-29.13919445 19.60224352 -21.88934041 10.7968234 -11 4 C-10.32453125 3.56558594 -9.6490625 3.13117188 -8.953125 2.68359375 C-5.61425455 0.63603858 -4.02232684 0 0 0 Z " fill="#5E82A0" transform="translate(356,193)"/>
<path d="M0 0 C18.34869831 5.64575333 40.72300462 16.73083899 50.0625 34.3125 C52.58767954 39.75241846 54.75632903 45.32925331 56.875 50.9375 C57.34111694 52.16303589 57.34111694 52.16303589 57.81665039 53.41333008 C60.75948202 61.47427453 60.75948202 61.47427453 60 65 C58.05859375 67.359375 58.05859375 67.359375 55.4375 69.75 C52.10072652 72.91734633 49.03641104 76.02446526 46.25 79.6875 C45.69570313 80.41582031 45.14140625 81.14414062 44.5703125 81.89453125 C43.55326881 83.25817939 42.54726404 84.63015951 41.5546875 86.01171875 C38.52280608 89.96310519 35.73388548 92.31178771 30.875 93.625 C19.98225293 95.0457931 8.45139571 93.86688805 -1 88 C-7.19069869 83.03618523 -10.13666018 76.58833621 -12 69 C-12.61311399 63.19849907 -12.6773678 57.45397365 -12.625 51.625 C-12.62268372 50.8299707 -12.62036743 50.03494141 -12.61798096 49.21582031 C-12.51490546 31.31939265 -9.10030996 15.58670111 0 0 Z " fill="#5F82A0" transform="translate(315,276)"/>
<path d="M0 0 C2.25549976 26.19315877 2.25549976 26.19315877 -2.82421875 32.30859375 C-6.08512567 35.31791735 -10.40180852 39 -15 39 C-15 39.66 -15 40.32 -15 41 C-16.46690559 42.3327188 -18.00322501 43.58913869 -19.5625 44.8125 C-25.06175026 49.20762618 -30.39249335 53.76453329 -35.69555664 58.39379883 C-37.46051801 59.93291318 -39.22975775 61.46696518 -41 63 C-41.56509277 63.49564453 -42.13018555 63.99128906 -42.71240234 64.50195312 C-46.77254747 68 -46.77254747 68 -49 68 C-49 68.66 -49 69.32 -49 70 C-50.46690559 71.3327188 -52.00322501 72.58913869 -53.5625 73.8125 C-59.06175026 78.20762618 -64.39249335 82.76453329 -69.69555664 87.39379883 C-71.46051801 88.93291318 -73.22975775 90.46696518 -75 92 C-75.56509277 92.49564453 -76.13018555 92.99128906 -76.71240234 93.50195312 C-80.77254747 97 -80.77254747 97 -83 97 C-83 97.66 -83 98.32 -83 99 C-84.6953125 100.5234375 -84.6953125 100.5234375 -87.125 102.375 C-91.42891391 105.73326522 -95.61667816 109.1865327 -99.75 112.75 C-100.33386475 113.25241211 -100.91772949 113.75482422 -101.51928711 114.27246094 C-103.34735253 115.8469664 -105.17386642 117.42325452 -107 119 C-109.5607575 121.21036513 -112.12356423 123.41832296 -114.6875 125.625 C-115.27563477 126.13385742 -115.86376953 126.64271484 -116.46972656 127.16699219 C-121.63491799 131.61202219 -124.52614969 133.29736262 -131.29296875 133.1953125 C-131.99899734 133.1924826 -132.70502594 133.18965271 -133.43244934 133.18673706 C-135.68430633 133.17555464 -137.93576352 133.1504542 -140.1875 133.125 C-141.71548904 133.11496767 -143.24348433 133.10584226 -144.77148438 133.09765625 C-148.51447663 133.07562172 -152.25717056 133.04110567 -156 133 C-153.16375964 129.36489278 -150.37072488 126.49054512 -146.75 123.625 C-142.56049561 120.27676155 -138.51126623 116.83881166 -134.55859375 113.21484375 C-133 112 -133 112 -131 112 C-131 111.34 -131 110.68 -131 110 C-129.53309441 108.6672812 -127.99677499 107.41086131 -126.4375 106.1875 C-121.69289416 102.39547911 -117.07213937 98.49800431 -112.5 94.5 C-108.11837546 90.6762876 -103.70937453 86.90843314 -99.1875 83.25 C-94.74897785 79.6581706 -90.49474511 75.90403857 -86.2890625 72.04296875 C-79.51816444 66 -79.51816444 66 -77 66 C-77 65.34 -77 64.68 -77 64 C-75.51261765 62.64617851 -73.95569449 61.36860114 -72.375 60.125 C-67.75944863 56.43375155 -63.22777949 52.66974063 -58.75 48.8125 C-58.18458496 48.32604004 -57.61916992 47.83958008 -57.03662109 47.33837891 C-56.48312988 46.86190918 -55.92963867 46.38543945 -55.359375 45.89453125 C-54.81345703 45.42611816 -54.26753906 44.95770508 -53.70507812 44.47509766 C-52.49287796 43.42639871 -51.28930795 42.36768776 -50.09179688 41.30224609 C-49.46853516 40.75262207 -48.84527344 40.20299805 -48.203125 39.63671875 C-47.63754883 39.13229248 -47.07197266 38.62786621 -46.48925781 38.1081543 C-45 37 -45 37 -43 37 C-43 36.34 -43 35.68 -43 35 C-41.33984375 33.51171875 -41.33984375 33.51171875 -38.9375 31.6875 C-34.39903515 28.14903588 -30.02195472 24.47277541 -25.6875 20.6875 C-20.7535518 16.3873792 -15.80612304 12.10577811 -10.8125 7.875 C-10.28422607 7.42600342 -9.75595215 6.97700684 -9.21166992 6.5144043 C-1.50714609 0 -1.50714609 0 0 0 Z " fill="#020202" transform="translate(600,467)"/>
<path d="M0 0 C1.27875 0.00257813 2.5575 0.00515625 3.875 0.0078125 C5.15375 0.00523437 6.4325 0.00265625 7.75 0 C10.875 0.1328125 10.875 0.1328125 11.875 1.1328125 C11.97075309 2.63832424 11.99688187 4.1483228 11.99525452 5.65687561 C11.99662918 6.63429214 11.99800385 7.61170868 11.99942017 8.6187439 C11.99582489 9.69983429 11.99222961 10.78092468 11.98852539 11.89477539 C11.98867142 13.0263356 11.98881744 14.15789581 11.9889679 15.32374573 C11.98826819 19.08433921 11.98047311 22.84488387 11.97265625 26.60546875 C11.97079227 29.20478793 11.96936828 31.80410747 11.96836853 34.40342712 C11.96493341 40.55869827 11.95704256 46.7139491 11.94701904 52.86921257 C11.93585694 59.87514596 11.93034721 66.88108017 11.92532361 73.88702023 C11.91485992 88.30229409 11.89706058 102.71755204 11.875 117.1328125 C15.835 117.1328125 19.795 117.1328125 23.875 117.1328125 C23.3167158 122.4675282 21.47308959 126.4631966 19.05859375 131.15625 C18.68267593 131.90242584 18.30675812 132.64860168 17.91944885 133.41738892 C16.72463212 135.78474706 15.51877506 138.14627581 14.3125 140.5078125 C13.49730982 142.11811667 12.68284869 143.72879014 11.86914062 145.33984375 C9.87950808 149.27515848 7.87995903 153.20528567 5.875 157.1328125 C3.63793945 157.09277344 3.63793945 157.09277344 0.875 156.1328125 C-0.78856945 153.66637088 -2.0591104 151.43245158 -3.33203125 148.7734375 C-3.70228928 148.03204529 -4.0725473 147.29065308 -4.45402527 146.52679443 C-5.23306436 144.95731754 -6.00331812 143.38345366 -6.76538086 141.80566406 C-7.93119473 139.39584594 -9.12603804 137.0022542 -10.32617188 134.609375 C-11.07989384 133.08160054 -11.83190453 131.5529804 -12.58203125 130.0234375 C-12.93820023 129.30867249 -13.2943692 128.59390747 -13.66133118 127.85748291 C-15.58322112 123.8437426 -16.125 121.72222203 -16.125 117.1328125 C-12.165 117.1328125 -8.205 117.1328125 -4.125 117.1328125 C-4.12722061 115.68177628 -4.12944122 114.23074005 -4.13172913 112.73573303 C-4.15195721 99.09417831 -4.1670305 85.45262513 -4.17681217 71.811059 C-4.18197498 64.79696616 -4.18901739 57.7828845 -4.20043945 50.76879883 C-4.21144688 44.00613182 -4.21727619 37.24347886 -4.21987724 30.48080254 C-4.22173203 27.8942897 -4.22535367 25.30777753 -4.23073006 22.72126961 C-4.23793651 19.11242395 -4.23899111 15.50362703 -4.23852539 11.89477539 C-4.24212067 10.813685 -4.24571594 9.7325946 -4.24942017 8.6187439 C-4.2480455 7.64132736 -4.24667084 6.66391083 -4.24525452 5.65687561 C-4.24617631 4.80237351 -4.2470981 3.94787142 -4.24804783 3.06747532 C-4.03917884 -0.21654085 -3.36232502 0.14289881 0 0 Z " fill="#FC3E03" transform="translate(251.125,253.8671875)"/>
<path d="M0 0 C0.54527344 0.98097656 1.09054687 1.96195313 1.65234375 2.97265625 C2.41398587 4.33598031 3.17571116 5.69925791 3.9375 7.0625 C4.338479 7.78477783 4.73945801 8.50705566 5.15258789 9.2512207 C7.1847941 12.8838635 9.25883655 16.45705166 11.53125 19.9453125 C16.23971689 27.23146231 18.5319168 32.40760011 19.359375 41.2265625 C20.13377821 44.57916176 21.17170087 45.77595701 23.8125 47.9375 C26.66651852 49.66955834 27.46112337 50.09580029 30.8125 49.5 C31.8953125 48.7575 31.8953125 48.7575 33 48 C36 46 36 46 38.6875 46.375 C39.450625 46.58125 40.21375 46.7875 41 47 C45.26553158 63.9859561 44.24250187 80.67153646 43 98 C42.29617188 98.12375 41.59234375 98.2475 40.8671875 98.375 C31.69291061 100.29129805 21.76439888 104.23560112 15 111 C13.01171875 110.8828125 13.01171875 110.8828125 11 110 C9.83203125 108.2421875 9.83203125 108.2421875 8.8125 105.875 C-0.37675814 86.13511215 -12.30652131 69.78023419 -33 61.125 C-38.46331144 59.29997139 -44.30990654 58.73728345 -50 58 C-51.66851467 47.51219348 -42.38406927 37.93270356 -36.625 29.875 C-29.13919445 19.60224352 -21.88934041 10.7968234 -11 4 C-10.32453125 3.56558594 -9.6490625 3.13117188 -8.953125 2.68359375 C-5.61425455 0.63603858 -4.02232684 0 0 0 Z M-7.8125 17.9375 C-8.60269531 18.48277344 -9.39289063 19.02804688 -10.20703125 19.58984375 C-17.44832996 25.83862879 -23.05112948 33.50751916 -28.5 41.3125 C-29.13164062 42.19228516 -29.76328125 43.07207031 -30.4140625 43.97851562 C-31.00960938 44.82736328 -31.60515625 45.67621094 -32.21875 46.55078125 C-32.75435547 47.31044189 -33.28996094 48.07010254 -33.84179688 48.8527832 C-35.31649215 51.18014022 -35.31649215 51.18014022 -35 55 C-33.97261719 55.49628906 -32.94523437 55.99257812 -31.88671875 56.50390625 C-12.06975993 66.16656232 -0.8457968 76.1206119 9 96 C15.07851149 95.33573153 19.21208517 92.77663085 24.390625 89.69140625 C28.84298439 87.60496511 33.17047917 86.77327956 38 86 C38.05883728 82.52090629 38.09387399 79.04194326 38.125 75.5625 C38.15013672 74.10166992 38.15013672 74.10166992 38.17578125 72.61132812 C38.21725154 66.41151925 37.57599699 60.99995705 36 55 C31.99056865 55.55765987 31.99056865 55.55765987 28.1796875 56.82421875 C25.167469 57.0671396 23.73170033 55.71254471 21.48388672 53.83959961 C15.43221185 48.33064703 13.17567072 45.12406992 12.6875 36.703125 C11.21714422 28.78325409 6.16737442 21.79982333 2 15 C-2.26746669 14.64374612 -4.34798352 15.46924189 -7.8125 17.9375 Z " fill="#060707" transform="translate(356,193)"/>
<path d="M0 0 C18.34869831 5.64575333 40.72300462 16.73083899 50.0625 34.3125 C52.58767954 39.75241846 54.75632903 45.32925331 56.875 50.9375 C57.34111694 52.16303589 57.34111694 52.16303589 57.81665039 53.41333008 C60.75948202 61.47427453 60.75948202 61.47427453 60 65 C58.05859375 67.359375 58.05859375 67.359375 55.4375 69.75 C52.10072652 72.91734633 49.03641104 76.02446526 46.25 79.6875 C45.69570313 80.41582031 45.14140625 81.14414062 44.5703125 81.89453125 C43.55326881 83.25817939 42.54726404 84.63015951 41.5546875 86.01171875 C38.52280608 89.96310519 35.73388548 92.31178771 30.875 93.625 C19.98225293 95.0457931 8.45139571 93.86688805 -1 88 C-7.19069869 83.03618523 -10.13666018 76.58833621 -12 69 C-12.61311399 63.19849907 -12.6773678 57.45397365 -12.625 51.625 C-12.62268372 50.8299707 -12.62036743 50.03494141 -12.61798096 49.21582031 C-12.51490546 31.31939265 -9.10030996 15.58670111 0 0 Z M9 11 C8.22137596 13.08043419 7.45261306 15.16455909 6.6875 17.25 C6.04361328 18.99023438 6.04361328 18.99023438 5.38671875 20.765625 C1.92996403 30.98767076 0.51968062 40.32391244 0.625 51.125 C0.61339844 52.32253906 0.60179687 53.52007812 0.58984375 54.75390625 C0.61306831 61.82191289 1.03293244 68.48319797 4 75 C6.14298293 77.15254366 6.14298293 77.15254366 9 78 C9.99 78.391875 10.98 78.78375 12 79.1875 C17.44190512 80.60817434 23.44770847 80.69778799 29 80 C30.92978229 78.73453028 30.92978229 78.73453028 32 77 C32 76.34 32 75.68 32 75 C33.485 74.505 33.485 74.505 35 74 C35 73.01 35 72.02 35 71 C35.66 71 36.32 71 37 71 C39.39820305 68.36315253 39.39820305 68.36315253 40 65 C40.99 64.67 41.98 64.34 43 64 C43 63.34 43 62.68 43 62 C43.99 61.67 44.98 61.34 46 61 C48.20667867 58.9437767 49.60809434 57.58577597 51 55 C51.11161968 51.76302926 50.89406587 50.01747233 50 47 C49.731875 46.08992188 49.46375 45.17984375 49.1875 44.2421875 C46.96225777 37.97551268 43.91191991 33.20086595 39.5 28.3125 C39.0373877 27.79526367 38.57477539 27.27802734 38.09814453 26.74511719 C35.24064734 23.75309004 33.15726068 22.32384458 29 22 C29 21.34 29 20.68 29 20 C28.01 20 27.02 20 26 20 C25.75765625 19.38511719 25.5153125 18.77023437 25.265625 18.13671875 C23.71521035 15.51919773 22.5298341 14.97076421 19.75 13.8125 C19.00234375 13.48894531 18.2546875 13.16539062 17.484375 12.83203125 C14.67670555 11.89172686 11.92713347 11.41876621 9 11 Z " fill="#050607" transform="translate(315,276)"/>
<path d="M0 0 C3.45281166 1.15093722 4.38082163 2.3205993 6.6875 5.0625 C7.62142578 6.16271484 7.62142578 6.16271484 8.57421875 7.28515625 C9.04472656 7.85105469 9.51523437 8.41695312 10 9 C6.15499772 12.89568969 2.20306128 16.6558202 -1.8125 20.375 C-2.43705078 20.9537085 -3.06160156 21.53241699 -3.70507812 22.12866211 C-9.10565987 27.11970442 -14.6114684 31.96354033 -20.20703125 36.734375 C-21.40904852 37.76018897 -22.61086561 38.78623755 -23.8125 39.8125 C-24.41513672 40.32699707 -25.01777344 40.84149414 -25.63867188 41.37158203 C-30.39326233 45.44566854 -35.03024897 49.63068258 -39.64453125 53.86328125 C-42.36474596 56.33087237 -45.14773245 58.68735064 -48 61 C-46.82674357 63.87981123 -45.62061333 65.37938667 -43.375 67.625 C-41 70 -41 70 -41 72 C-45.26724659 72.98365858 -49.53565807 73.96204977 -53.80517578 74.93579102 C-55.254392 75.26706347 -56.70329295 75.59971858 -58.15185547 75.93383789 C-60.24623503 76.41665661 -62.34173641 76.89432313 -64.4375 77.37109375 C-65.69433594 77.65911865 -66.95117188 77.94714355 -68.24609375 78.24389648 C-72.16727288 79.03369173 -76.02728003 79.55152919 -80 80 C-79.25444066 75.61937519 -77.9162149 71.4910715 -76.49609375 67.29296875 C-76.2533522 66.56757401 -76.01061066 65.84217926 -75.76051331 65.09480286 C-74.98900123 62.79140949 -74.21331556 60.48944701 -73.4375 58.1875 C-72.91183271 56.6205355 -72.38643908 55.05347915 -71.86132812 53.48632812 C-70.57738516 49.65648145 -69.28969875 45.82791206 -68 42 C-64.70303895 43.09898702 -63.95329411 43.94597387 -61.8125 46.5625 C-61.01779297 47.52349609 -61.01779297 47.52349609 -60.20703125 48.50390625 C-59.80871094 48.99761719 -59.41039062 49.49132812 -59 50 C-56.13275037 48.68532222 -53.95455409 47.24373471 -51.625 45.125 C-47.09344141 41.06458644 -42.47181646 37.11714638 -37.83642578 33.17626953 C-37.25489746 32.67981934 -36.67336914 32.18336914 -36.07421875 31.671875 C-35.55432373 31.2294043 -35.03442871 30.78693359 -34.4987793 30.33105469 C-32.9437101 28.99019764 -32.9437101 28.99019764 -31.43286133 27.33300781 C-30 26 -30 26 -28 26 C-28 25.34 -28 24.68 -28 24 C-26.42578125 22.66796875 -26.42578125 22.66796875 -24.3125 21.1875 C-20.83938936 18.74781964 -17.97593478 16.02553369 -15 13 C-13.15687979 11.27975447 -11.30255082 9.571444 -9.4375 7.875 C-8.50808594 7.02679688 -7.57867187 6.17859375 -6.62109375 5.3046875 C-1.94283854 1.19116951 -1.94283854 1.19116951 0 0 Z " fill="#19171A" transform="translate(334,504)"/>
<path d="M0 0 C1.27875 0.00257813 2.5575 0.00515625 3.875 0.0078125 C5.15375 0.00523437 6.4325 0.00265625 7.75 0 C10.875 0.1328125 10.875 0.1328125 11.875 1.1328125 C11.97075309 2.63832424 11.99688187 4.1483228 11.99525452 5.65687561 C11.99662918 6.63429214 11.99800385 7.61170868 11.99942017 8.6187439 C11.99582489 9.69983429 11.99222961 10.78092468 11.98852539 11.89477539 C11.98867142 13.0263356 11.98881744 14.15789581 11.9889679 15.32374573 C11.98826819 19.08433921 11.98047311 22.84488387 11.97265625 26.60546875 C11.97079227 29.20478793 11.96936828 31.80410747 11.96836853 34.40342712 C11.96493341 40.55869827 11.95704256 46.7139491 11.94701904 52.86921257 C11.93585694 59.87514596 11.93034721 66.88108017 11.92532361 73.88702023 C11.91485992 88.30229409 11.89706058 102.71755204 11.875 117.1328125 C15.835 117.1328125 19.795 117.1328125 23.875 117.1328125 C23.3167158 122.4675282 21.47308959 126.4631966 19.05859375 131.15625 C18.68267593 131.90242584 18.30675812 132.64860168 17.91944885 133.41738892 C16.72463212 135.78474706 15.51877506 138.14627581 14.3125 140.5078125 C13.49730982 142.11811667 12.68284869 143.72879014 11.86914062 145.33984375 C9.87950808 149.27515848 7.87995903 153.20528567 5.875 157.1328125 C3.63793945 157.09277344 3.63793945 157.09277344 0.875 156.1328125 C-0.78856945 153.66637088 -2.0591104 151.43245158 -3.33203125 148.7734375 C-3.70228928 148.03204529 -4.0725473 147.29065308 -4.45402527 146.52679443 C-5.23306436 144.95731754 -6.00331812 143.38345366 -6.76538086 141.80566406 C-7.93119473 139.39584594 -9.12603804 137.0022542 -10.32617188 134.609375 C-11.07989384 133.08160054 -11.83190453 131.5529804 -12.58203125 130.0234375 C-12.93820023 129.30867249 -13.2943692 128.59390747 -13.66133118 127.85748291 C-15.58322112 123.8437426 -16.125 121.72222203 -16.125 117.1328125 C-12.165 117.1328125 -8.205 117.1328125 -4.125 117.1328125 C-4.12722061 115.68177628 -4.12944122 114.23074005 -4.13172913 112.73573303 C-4.15195721 99.09417831 -4.1670305 85.45262513 -4.17681217 71.811059 C-4.18197498 64.79696616 -4.18901739 57.7828845 -4.20043945 50.76879883 C-4.21144688 44.00613182 -4.21727619 37.24347886 -4.21987724 30.48080254 C-4.22173203 27.8942897 -4.22535367 25.30777753 -4.23073006 22.72126961 C-4.23793651 19.11242395 -4.23899111 15.50362703 -4.23852539 11.89477539 C-4.24212067 10.813685 -4.24571594 9.7325946 -4.24942017 8.6187439 C-4.2480455 7.64132736 -4.24667084 6.66391083 -4.24525452 5.65687561 C-4.24617631 4.80237351 -4.2470981 3.94787142 -4.24804783 3.06747532 C-4.03917884 -0.21654085 -3.36232502 0.14289881 0 0 Z M-2.125 2.1328125 C-2.125 40.7428125 -2.125 79.3528125 -2.125 119.1328125 C-6.085 119.1328125 -10.045 119.1328125 -14.125 119.1328125 C-12.71003846 123.7484294 -10.83020721 127.98858093 -8.6484375 132.28125 C-8.15327133 133.26733749 -8.15327133 133.26733749 -7.64810181 134.27334595 C-6.60250603 136.35342567 -5.5513553 138.43063894 -4.5 140.5078125 C-3.7860881 141.92559488 -3.0725427 143.34356188 -2.359375 144.76171875 C-0.61881428 148.22089927 1.12673082 151.67752187 2.875 155.1328125 C6.20236159 152.3759844 7.8026966 148.67439447 9.66796875 144.875 C10.01886063 144.17134308 10.3697525 143.46768616 10.73127747 142.7427063 C11.4694178 141.25971854 12.20468456 139.77529745 12.93725586 138.28955078 C14.0632536 136.00628437 15.19781903 133.72744012 16.33398438 131.44921875 C17.04998033 130.00806138 17.76549218 128.56666337 18.48046875 127.125 C18.82103806 126.43961151 19.16160736 125.75422302 19.51249695 125.04806519 C21.15851673 122.21741648 21.15851673 122.21741648 21.875 119.1328125 C17.915 119.1328125 13.955 119.1328125 9.875 119.1328125 C9.875 80.5228125 9.875 41.9128125 9.875 2.1328125 C5.915 2.1328125 1.955 2.1328125 -2.125 2.1328125 Z " fill="#080504" transform="translate(251.125,253.8671875)"/>
<path d="M0 0 C0.33 0 0.66 0 1 0 C1 38.61 1 77.22 1 117 C-2.96 117 -6.92 117 -11 117 C-8.5997888 121.82508081 -6.19698984 126.64886045 -3.79174805 131.47143555 C-2.97332041 133.1133298 -2.15561003 134.75558178 -1.33862305 136.39819336 C-0.16642146 138.75468109 1.00832579 141.10988415 2.18359375 143.46484375 C2.73363319 144.57266457 2.73363319 144.57266457 3.29478455 145.7028656 C4.81816122 149.07319924 4.81816122 149.07319924 7 152 C12.61 140.78 18.22 129.56 24 118 C24.66 118 25.32 118 26 118 C25.37629252 122.60613783 23.49373693 126.39940738 21.40234375 130.48828125 C21.04862198 131.19147995 20.69490021 131.89467865 20.33045959 132.6191864 C19.20509922 134.85318349 18.07144457 137.08284992 16.9375 139.3125 C16.1706718 140.83110152 15.40438962 142.34997888 14.63867188 143.86914062 C12.76542351 147.58265171 10.88472764 151.29230273 9 155 C6.76293945 154.9621582 6.76293945 154.9621582 4 154 C2.33685207 151.52178175 1.06556249 149.27533608 -0.20703125 146.60546875 C-0.57728928 145.86170486 -0.9475473 145.11794098 -1.32902527 144.35163879 C-2.1079957 142.77792046 -2.87825221 141.19986311 -3.64038086 139.61791992 C-4.80749485 137.19787831 -6.00168884 134.79280708 -7.20117188 132.38867188 C-7.95475979 130.85757437 -8.70676665 129.32569747 -9.45703125 127.79296875 C-9.81320023 127.07304245 -10.1693692 126.35311615 -10.53633118 125.6113739 C-12.220457 122.09379594 -13 119.97050344 -13 116 C-8.71 116 -4.42 116 0 116 C0 77.72 0 39.44 0 0 Z " fill="#4D1C0C" transform="translate(248,256)"/>
</svg>
