<?xml version="1.0" encoding="UTF-8"?>
<svg version="1.1" xmlns="http://www.w3.org/2000/svg" width="600" height="600">
<path d="M0 0 C198 0 396 0 600 0 C600 198 600 396 600 600 C402 600 204 600 0 600 C0 402 0 204 0 0 Z " fill="#FEFEFE" transform="translate(0,0)"/>
<path d="M0 0 C0 120.78 0 241.56 0 366 C-198 366 -396 366 -600 366 C-600 347 -600 347 -596.30859375 343.27734375 C-594.55848781 342.47445834 -592.7862848 341.71880623 -591 341 C-588.9569325 339.83654427 -586.92771577 338.6485548 -584.91015625 337.44140625 C-583.22177109 336.48201784 -581.53331937 335.52273765 -579.84240723 334.56781006 C-577.37796927 333.17586994 -574.91792948 331.77623384 -572.45755005 330.37713623 C-571.18372882 329.65285568 -569.90970036 328.92893948 -568.63546753 328.2053833 C-562.32526264 324.62134127 -556.0349124 321.00320165 -549.75 317.375 C-548.68144775 316.75826416 -547.61289551 316.14152832 -546.51196289 315.50610352 C-538.33856367 310.78354336 -530.18408943 306.02895892 -522.03369141 301.2668457 C-511.47352916 295.1005487 -500.87857454 288.99494961 -490.28222656 282.89111328 C-484.85340058 279.76319852 -479.42680719 276.63141552 -474 273.5 C-471.83334417 272.24998121 -469.6666775 270.99998122 -467.5 269.75 C-466.4275 269.13125 -465.355 268.5125 -464.25 267.875 C-402.5 232.25 -402.5 232.25 -399.24951172 230.37475586 C-397.08442929 229.12564482 -394.91939018 227.87645871 -392.75439453 226.62719727 C-387.31384294 223.48797691 -381.87252784 220.35009437 -376.4296875 217.21484375 C-365.93767906 211.16944841 -355.45518324 205.10889781 -345 199 C-333.45270484 192.25298806 -321.87097973 185.56660682 -310.28222656 178.89111328 C-304.85340058 175.76319852 -299.42680719 172.63141552 -294 169.5 C-291.83334417 168.24998121 -289.6666775 166.99998122 -287.5 165.75 C-286.4275 165.13125 -285.355 164.5125 -284.25 163.875 C-196.50000001 113.25 -196.50000001 113.25 -193.24951172 111.37475586 C-191.08442929 110.12564482 -188.91939018 108.87645871 -186.75439453 107.62719727 C-181.31384294 104.48797691 -175.87252784 101.35009437 -170.4296875 98.21484375 C-159.93767906 92.16944841 -149.45518324 86.10889781 -139 80 C-127.45270484 73.25298806 -115.87097973 66.56660682 -104.28222656 59.89111328 C-98.85340058 56.76319852 -93.42680719 53.63141552 -88 50.5 C-85.83334417 49.24998121 -83.6666775 47.99998122 -81.5 46.75 C-80.4275 46.13125 -79.355 45.5125 -78.25 44.875 C-68.5 39.25 -68.5 39.25 -65.24902344 37.37451172 C-63.08552524 36.12628966 -60.92211357 34.87791761 -58.75878906 33.62939453 C-53.29434983 30.47594744 -47.82836355 27.32523904 -42.359375 24.1796875 C-30.72234912 17.48238349 -19.11239792 10.74693283 -7.58691406 3.85888672 C-6.73194336 3.34986816 -5.87697266 2.84084961 -4.99609375 2.31640625 C-4.24513428 1.86724854 -3.4941748 1.41809082 -2.72045898 0.95532227 C-1 0 -1 0 0 0 Z " fill="#94CBF9" transform="translate(600,234)"/>
<path d="M0 0 C0.20863947 11.23940657 0.36849883 22.47835176 0.46630955 33.71930122 C0.51325791 38.93921483 0.5769192 44.15780265 0.67895508 49.37695312 C0.77683388 54.41506821 0.83057534 59.45190941 0.85389519 64.49090195 C0.87051002 66.41199682 0.90295782 68.3330228 0.95157051 70.25357437 C1.31691055 85.28669822 1.31691055 85.28669822 -1.86602783 89.42770386 C-4.19836844 91.01579381 -6.35790555 92.0306283 -9 93 C-9.98339355 93.59538574 -10.96678711 94.19077148 -11.97998047 94.80419922 C-12.85025879 95.29936035 -13.72053711 95.79452148 -14.6171875 96.3046875 C-15.62217285 96.87968994 -16.6271582 97.45469238 -17.66259766 98.04711914 C-18.72269043 98.65031982 -19.7827832 99.25352051 -20.875 99.875 C-23.19348981 101.20309109 -25.51140645 102.5321097 -27.828125 103.86328125 C-28.41981476 104.20312546 -29.01150452 104.54296967 -29.62112427 104.89311218 C-35.99025985 108.55820431 -42.3091726 112.30631681 -48.625 116.0625 C-57.99143651 121.63019204 -67.38033648 127.15618187 -76.796875 132.63867188 C-84.74691941 137.26748063 -92.68861231 141.91032659 -100.625 146.5625 C-101.24308533 146.92479706 -101.86117065 147.28709412 -102.49798584 147.66036987 C-111.21434852 152.77056679 -119.91885577 157.90050336 -128.61376953 163.04711914 C-136.85669866 167.92301617 -145.12015196 172.7636806 -153.38427734 177.60351562 C-161.26571213 182.21963816 -169.13999759 186.84744252 -177 191.5 C-186.11275928 196.89409966 -195.2464719 202.25201516 -204.38427734 207.60351562 C-213.14289372 212.73339965 -221.88960635 217.88287889 -230.62426758 223.0534668 C-238.74924731 227.85967801 -246.89561151 232.62912771 -255.04232788 237.39834595 C-263.98261331 242.63321404 -272.90428581 247.89822774 -281.8125 253.1875 C-292.10236669 259.2958302 -302.42437906 265.34634858 -312.765625 271.3671875 C-319.72582935 275.42021968 -326.67651558 279.48941843 -333.625 283.5625 C-334.24308533 283.92479706 -334.86117065 284.28709412 -335.49798584 284.66036987 C-344.2180324 289.77272657 -352.92629607 294.90470172 -361.62475586 300.05371094 C-369.74951981 304.85993021 -377.89576839 309.62921955 -386.04232788 314.39834595 C-394.98261343 319.63321411 -403.90427692 324.89824255 -412.8125 330.1875 C-433.30815759 342.35382458 -433.30815759 342.35382458 -440.71709633 346.56165981 C-445.73347095 349.43306805 -450.61566334 352.37029726 -455.35217285 355.68582153 C-470.795757 366.16342672 -483.46943377 367.97702019 -501.87652016 367.41951513 C-505.34332087 367.33013897 -508.81042321 367.32363197 -512.27819824 367.30715942 C-518.80264857 367.26417114 -525.3236933 367.15004688 -531.84666395 367.00826657 C-539.2903649 366.85009379 -546.73425564 366.77439343 -554.17922688 366.70453048 C-569.45476951 366.55939435 -584.72694059 366.31423078 -600 366 C-600.10738015 362.91115937 -600.17284915 359.82279967 -600.23071289 356.73266602 C-600.26164284 355.85764687 -600.29257278 354.98262772 -600.32444 354.08109283 C-600.41586424 347.58532835 -600.41586424 347.58532835 -598.29640198 344.60218811 C-595.95605405 343.04238133 -593.60890339 342.04983036 -591 341 C-588.9569325 339.83654427 -586.92771577 338.6485548 -584.91015625 337.44140625 C-583.22177109 336.48201784 -581.53331937 335.52273765 -579.84240723 334.56781006 C-577.37796927 333.17586994 -574.91792948 331.77623384 -572.45755005 330.37713623 C-571.18372882 329.65285568 -569.90970036 328.92893948 -568.63546753 328.2053833 C-562.32526264 324.62134127 -556.0349124 321.00320165 -549.75 317.375 C-548.68144775 316.75826416 -547.61289551 316.14152832 -546.51196289 315.50610352 C-538.33856367 310.78354336 -530.18408943 306.02895892 -522.03369141 301.2668457 C-511.47352916 295.1005487 -500.87857454 288.99494961 -490.28222656 282.89111328 C-484.85340058 279.76319852 -479.42680719 276.63141552 -474 273.5 C-471.83334417 272.24998121 -469.6666775 270.99998122 -467.5 269.75 C-466.4275 269.13125 -465.355 268.5125 -464.25 267.875 C-402.5 232.25 -402.5 232.25 -399.24951172 230.37475586 C-397.08442929 229.12564482 -394.91939018 227.87645871 -392.75439453 226.62719727 C-387.31384294 223.48797691 -381.87252784 220.35009437 -376.4296875 217.21484375 C-365.93767906 211.16944841 -355.45518324 205.10889781 -345 199 C-333.45270484 192.25298806 -321.87097973 185.56660682 -310.28222656 178.89111328 C-304.85340058 175.76319852 -299.42680719 172.63141552 -294 169.5 C-291.83334417 168.24998121 -289.6666775 166.99998122 -287.5 165.75 C-286.4275 165.13125 -285.355 164.5125 -284.25 163.875 C-196.50000001 113.25 -196.50000001 113.25 -193.24951172 111.37475586 C-191.08442929 110.12564482 -188.91939018 108.87645871 -186.75439453 107.62719727 C-181.31384294 104.48797691 -175.87252784 101.35009437 -170.4296875 98.21484375 C-159.93767906 92.16944841 -149.45518324 86.10889781 -139 80 C-127.45270484 73.25298806 -115.87097973 66.56660682 -104.28222656 59.89111328 C-98.85340058 56.76319852 -93.42680719 53.63141552 -88 50.5 C-85.83334417 49.24998121 -83.6666775 47.99998122 -81.5 46.75 C-80.4275 46.13125 -79.355 45.5125 -78.25 44.875 C-68.5 39.25 -68.5 39.25 -65.24902344 37.37451172 C-63.08552524 36.12628966 -60.92211357 34.87791761 -58.75878906 33.62939453 C-53.29434983 30.47594744 -47.82836355 27.32523904 -42.359375 24.1796875 C-30.72234912 17.48238349 -19.11239792 10.74693283 -7.58691406 3.85888672 C-6.73194336 3.34986816 -5.87697266 2.84084961 -4.99609375 2.31640625 C-4.24513428 1.86724854 -3.4941748 1.41809082 -2.72045898 0.95532227 C-1 0 -1 0 0 0 Z " fill="#5F83A1" transform="translate(600,234)"/>
<path d="M0 0 C0 54.45 0 108.9 0 165 C-93.06 165 -186.12 165 -282 165 C-278.47914644 162.18331715 -275.50824176 160.0070827 -271.66796875 157.8203125 C-270.11795166 156.93267212 -270.11795166 156.93267212 -268.53662109 156.02709961 C-267.43141113 155.39940674 -266.32620117 154.77171387 -265.1875 154.125 C-263.42727278 153.11865594 -261.66797257 152.11070376 -259.90869141 151.10270691 C-258.70714465 150.41440925 -257.50531943 149.72659747 -256.30322266 149.03926086 C-250.47432628 145.70533721 -244.67207874 142.32642088 -238.875 138.9375 C-237.89063965 138.36249756 -236.9062793 137.78749512 -235.89208984 137.19506836 C-233.90988502 136.03713227 -231.92778802 134.8790116 -229.94580078 133.72070312 C-227.02605681 132.01522032 -224.1050684 130.31189123 -221.18359375 128.609375 C-210.28005116 122.25489011 -199.38573729 115.8849208 -188.5 109.5 C-176.65008551 102.54955067 -164.78874751 95.61894228 -152.91943359 88.70166016 C-147.9454882 85.80247974 -142.9728183 82.90111308 -138 80 C-136.0000059 78.83332322 -134.00000591 77.66665654 -132 76.5 C-131.01 75.9225 -130.02 75.345 -129 74.75 C-120 69.5 -120 69.5 -117.0012207 67.75073242 C-114.99712809 66.58166481 -112.99305915 65.41255661 -110.98901367 64.2434082 C-106.05182205 61.36314604 -101.11424845 58.48354335 -96.17578125 55.60546875 C-85.27520956 49.25165958 -74.38323043 42.88345043 -63.5 36.5 C-52.64700396 30.13428325 -41.78601821 23.78252199 -30.9140625 17.44921875 C-26.67562827 14.97954048 -22.44219843 12.50147866 -18.2109375 10.01953125 C-17.09887939 9.36815186 -15.98682129 8.71677246 -14.84106445 8.0456543 C-12.69275374 6.7871272 -10.54541822 5.52693362 -8.39916992 4.26489258 C-7.44373291 3.70568115 -6.4882959 3.14646973 -5.50390625 2.5703125 C-4.23268921 1.82418701 -4.23268921 1.82418701 -2.93579102 1.06298828 C-1 0 -1 0 0 0 Z " fill="#7F7F7F" transform="translate(600,435)"/>
<path d="M0 0 C0.24441588 2.20276037 0.41826648 4.41341933 0.5625 6.625 C0.66691406 7.85476562 0.77132812 9.08453125 0.87890625 10.3515625 C-0.10192696 14.42311013 -0.49687687 14.79492871 -3.78515625 17.0390625 C-5.50725533 18.05401291 -7.2471345 19.03916073 -9 20 C-9.9273999 20.53383301 -10.8547998 21.06766602 -11.81030273 21.61767578 C-14.85770647 23.35839855 -17.92571545 25.05724696 -21 26.75 C-28.1889213 30.74175552 -35.36644118 34.73986478 -42.4375 38.9375 C-49.44712853 43.09803134 -56.49801689 47.1832898 -63.5625 51.25 C-72.05656299 56.14145324 -80.5376557 61.05387301 -89 66 C-100.54718726 72.74719493 -112.12902168 79.43339398 -123.71777344 86.10888672 C-129.14659938 89.23680146 -134.57322007 92.36853731 -140 95.5 C-146.52233275 99.26363919 -153.04513762 103.02644622 -159.5703125 106.78515625 C-170.06232094 112.83055159 -180.54481676 118.89110219 -191 125 C-202.54729516 131.74701194 -214.12902027 138.43339318 -225.71777344 145.10888672 C-231.14659942 148.23680148 -236.57319281 151.36858448 -242 154.5 C-244.16665583 155.75001879 -246.3333225 157.00001878 -248.5 158.25 C-249.5725 158.86875 -250.645 159.4875 -251.75 160.125 C-261.5 165.75 -261.5 165.75 -264.75048828 167.62524414 C-266.91557071 168.87435518 -269.08060982 170.12354129 -271.24560547 171.37280273 C-276.68615706 174.51202309 -282.12747216 177.64990563 -287.5703125 180.78515625 C-298.02206279 186.80747375 -308.46293115 192.84680257 -318.875 198.9375 C-327.51282001 203.98838019 -336.1831964 208.98024353 -344.875 213.9375 C-363.29324525 224.44246124 -381.65870982 235.0363935 -399.96630859 245.7331543 C-410.52647084 251.8994513 -421.12142546 258.00505039 -431.71777344 264.10888672 C-437.14659938 267.23680146 -442.57322007 270.36853731 -448 273.5 C-454.52233275 277.26363919 -461.04513762 281.02644622 -467.5703125 284.78515625 C-478.06232094 290.83055159 -488.54481676 296.89110219 -499 303 C-512.73055188 311.02267511 -526.51077966 318.95858259 -540.29101562 326.89550781 C-554.04694276 334.8196738 -567.78534246 342.77244263 -581.4921875 350.78125 C-582.8239502 351.55855469 -582.8239502 351.55855469 -584.18261719 352.3515625 C-586.23238158 353.55087005 -588.27956751 354.75458783 -590.32519531 355.9609375 C-591.96246582 356.92386719 -591.96246582 356.92386719 -593.6328125 357.90625 C-594.6345752 358.49728516 -595.63633789 359.08832031 -596.66845703 359.69726562 C-599 361 -599 361 -600 361 C-600.24441588 358.79723963 -600.41826648 356.58658067 -600.5625 354.375 C-600.66691406 353.14523437 -600.77132812 351.91546875 -600.87890625 350.6484375 C-599.90208235 346.59353294 -599.54230976 346.23280157 -596.2734375 344.00390625 C-594.53056646 342.97681756 -592.77105408 341.97769018 -591 341 C-590.02764404 340.43087891 -589.05528809 339.86175781 -588.0534668 339.27539062 C-585.3278939 337.68513792 -582.59006216 336.11952374 -579.84240723 334.56781006 C-577.37796927 333.17586994 -574.91792948 331.77623384 -572.45755005 330.37713623 C-571.18372882 329.65285568 -569.90970036 328.92893948 -568.63546753 328.2053833 C-562.32526264 324.62134127 -556.0349124 321.00320165 -549.75 317.375 C-548.68144775 316.75826416 -547.61289551 316.14152832 -546.51196289 315.50610352 C-538.33856367 310.78354336 -530.18408943 306.02895892 -522.03369141 301.2668457 C-511.47352916 295.1005487 -500.87857454 288.99494961 -490.28222656 282.89111328 C-484.85340058 279.76319852 -479.42680719 276.63141552 -474 273.5 C-471.83334417 272.24998121 -469.6666775 270.99998122 -467.5 269.75 C-466.4275 269.13125 -465.355 268.5125 -464.25 267.875 C-402.5 232.25 -402.5 232.25 -399.24951172 230.37475586 C-397.08442929 229.12564482 -394.91939018 227.87645871 -392.75439453 226.62719727 C-387.31384294 223.48797691 -381.87252784 220.35009437 -376.4296875 217.21484375 C-365.93767906 211.16944841 -355.45518324 205.10889781 -345 199 C-333.45270484 192.25298806 -321.87097973 185.56660682 -310.28222656 178.89111328 C-304.85340058 175.76319852 -299.42680719 172.63141552 -294 169.5 C-291.83334417 168.24998121 -289.6666775 166.99998122 -287.5 165.75 C-286.4275 165.13125 -285.355 164.5125 -284.25 163.875 C-196.50000001 113.25 -196.50000001 113.25 -193.24951172 111.37475586 C-191.08442929 110.12564482 -188.91939018 108.87645871 -186.75439453 107.62719727 C-181.31384294 104.48797691 -175.87252784 101.35009437 -170.4296875 98.21484375 C-159.93767906 92.16944841 -149.45518324 86.10889781 -139 80 C-127.45270484 73.25298806 -115.87097973 66.56660682 -104.28222656 59.89111328 C-98.85340058 56.76319852 -93.42680719 53.63141552 -88 50.5 C-85.83334417 49.24998121 -83.6666775 47.99998122 -81.5 46.75 C-80.4275 46.13125 -79.355 45.5125 -78.25 44.875 C-68.5 39.25 -68.5 39.25 -65.24902344 37.37451172 C-63.08552524 36.12628966 -60.92211357 34.87791761 -58.75878906 33.62939453 C-53.29434983 30.47594744 -47.82836355 27.32523904 -42.359375 24.1796875 C-30.72234912 17.48238349 -19.11239792 10.74693283 -7.58691406 3.85888672 C-6.73194336 3.34986816 -5.87697266 2.84084961 -4.99609375 2.31640625 C-4.24513428 1.86724854 -3.4941748 1.41809082 -2.72045898 0.95532227 C-1 0 -1 0 0 0 Z " fill="#030303" transform="translate(600,234)"/>
<path d="M0 0 C1.52333666 7.92330363 2.70801202 16.23498068 0 24 C-5.29511912 30.14612041 -13.37353535 33.14539614 -20.62207031 36.41552734 C-25.92013999 38.90067277 -30.86632911 41.92201169 -35.875 44.9375 C-37.87428686 46.10891499 -39.8756133 47.27685552 -41.87890625 48.44140625 C-42.88195801 49.0255127 -43.88500977 49.60961914 -44.91845703 50.21142578 C-50.207612 53.28133145 -55.5112338 56.32607492 -60.8125 59.375 C-69.74870174 64.51662348 -78.63905613 69.72979462 -87.5 75 C-101.66438366 83.42297534 -115.93880244 91.64825698 -130.22949219 99.85449219 C-143.46279521 107.45694279 -156.6400289 115.14181918 -169.75366211 122.94897461 C-177.78778114 127.7197564 -185.8763065 132.38438402 -194 137 C-206.81994991 144.28461547 -219.51375793 151.76756343 -232.17114258 159.33105469 C-233.10466553 159.88180664 -234.03818848 160.43255859 -235 161 C-236.61406738 162.08087891 -236.61406738 162.08087891 -238.26074219 163.18359375 C-242.56555344 165.62189707 -246.5868053 165.50991445 -251.43359375 165.390625 C-252.31153091 165.38496521 -253.18946808 165.37930542 -254.0940094 165.37347412 C-256.8757468 165.35122853 -259.65615732 165.30105591 -262.4375 165.25 C-264.33266358 165.22991965 -266.22784752 165.21167158 -268.12304688 165.1953125 C-272.74920284 165.1514027 -277.37437709 165.08245882 -282 165 C-278.69848311 162.25536996 -275.39705716 159.94377075 -271.66796875 157.8203125 C-270.11795166 156.93267212 -270.11795166 156.93267212 -268.53662109 156.02709961 C-267.43141113 155.39940674 -266.32620117 154.77171387 -265.1875 154.125 C-263.42727278 153.11865594 -261.66797257 152.11070376 -259.90869141 151.10270691 C-258.70714465 150.41440925 -257.50531943 149.72659747 -256.30322266 149.03926086 C-250.47432628 145.70533721 -244.67207874 142.32642088 -238.875 138.9375 C-237.89063965 138.36249756 -236.9062793 137.78749512 -235.89208984 137.19506836 C-233.90988502 136.03713227 -231.92778802 134.8790116 -229.94580078 133.72070312 C-227.02605681 132.01522032 -224.1050684 130.31189123 -221.18359375 128.609375 C-210.28005116 122.25489011 -199.38573729 115.8849208 -188.5 109.5 C-176.65008551 102.54955067 -164.78874751 95.61894228 -152.91943359 88.70166016 C-147.9454882 85.80247974 -142.9728183 82.90111308 -138 80 C-136.0000059 78.83332322 -134.00000591 77.66665654 -132 76.5 C-131.01 75.9225 -130.02 75.345 -129 74.75 C-120 69.5 -120 69.5 -117.0012207 67.75073242 C-114.99712809 66.58166481 -112.99305915 65.41255661 -110.98901367 64.2434082 C-106.05182205 61.36314604 -101.11424845 58.48354335 -96.17578125 55.60546875 C-85.27520956 49.25165958 -74.38323043 42.88345043 -63.5 36.5 C-52.64700396 30.13428325 -41.78601821 23.78252199 -30.9140625 17.44921875 C-26.67562827 14.97954048 -22.44219843 12.50147866 -18.2109375 10.01953125 C-17.09887939 9.36815186 -15.98682129 8.71677246 -14.84106445 8.0456543 C-12.69275374 6.7871272 -10.54541822 5.52693362 -8.39916992 4.26489258 C-7.44373291 3.70568115 -6.4882959 3.14646973 -5.50390625 2.5703125 C-4.23268921 1.82418701 -4.23268921 1.82418701 -2.93579102 1.06298828 C-1 0 -1 0 0 0 Z " fill="#010101" transform="translate(600,435)"/>
<path d="M0 0 C0.77605241 5.00122667 0.77605241 5.00122667 0 8 C-1.60620117 9.49804687 -1.60620117 9.49804687 -3.79296875 10.84375 C-5.02527222 11.61066162 -5.02527222 11.61066162 -6.2824707 12.39306641 C-7.62764771 13.18849854 -7.62764771 13.18849854 -9 14 C-10.35774536 14.8051001 -10.35774536 14.8051001 -11.74291992 15.62646484 C-14.77530203 17.39700715 -17.82305032 19.1384179 -20.875 20.875 C-23.19348981 22.20309109 -25.51140645 23.5321097 -27.828125 24.86328125 C-28.71565964 25.37304756 -28.71565964 25.37304756 -29.62112427 25.89311218 C-35.99025985 29.55820431 -42.3091726 33.30631681 -48.625 37.0625 C-57.99143651 42.63019204 -67.38033648 48.15618187 -76.796875 53.63867188 C-84.74691941 58.26748063 -92.68861231 62.91032659 -100.625 67.5625 C-101.24308533 67.92479706 -101.86117065 68.28709412 -102.49798584 68.66036987 C-111.21434852 73.77056679 -119.91885577 78.90050336 -128.61376953 84.04711914 C-136.85669866 88.92301617 -145.12015196 93.7636806 -153.38427734 98.60351562 C-161.26571213 103.21963816 -169.13999759 107.84744252 -177 112.5 C-186.11275928 117.89409966 -195.2464719 123.25201516 -204.38427734 128.60351562 C-213.14289372 133.73339965 -221.88960635 138.88287889 -230.62426758 144.0534668 C-238.74924731 148.85967801 -246.89561151 153.62912771 -255.04232788 158.39834595 C-263.98261331 163.63321404 -272.90428581 168.89822774 -281.8125 174.1875 C-292.10236669 180.2958302 -302.42437906 186.34634858 -312.765625 192.3671875 C-319.72582935 196.42021968 -326.67651558 200.48941843 -333.625 204.5625 C-334.24308533 204.92479706 -334.86117065 205.28709412 -335.49798584 205.66036987 C-344.2180324 210.77272657 -352.92629607 215.90470172 -361.62475586 221.05371094 C-369.74951981 225.85993021 -377.89576839 230.62921955 -386.04232788 235.39834595 C-394.98261343 240.63321411 -403.90427692 245.89824255 -412.8125 251.1875 C-422.2276552 256.77638309 -431.64565908 262.36088205 -441.13598633 267.8215332 C-446.25359295 270.77218317 -451.29295925 273.80072497 -456.26953125 276.984375 C-467.66691863 284.16441849 -476.23629888 289.55033285 -490 287 C-486.67798768 284.23609475 -483.35262839 281.91975811 -479.59765625 279.78515625 C-478.03277466 278.89014404 -478.03277466 278.89014404 -476.4362793 277.97705078 C-475.32293213 277.34524902 -474.20958496 276.71344727 -473.0625 276.0625 C-470.6940718 274.70919509 -468.32752702 273.35261086 -465.9609375 271.99609375 C-465.36707748 271.65618408 -464.77321747 271.31627441 -464.16136169 270.96606445 C-458.80865972 267.8992556 -453.49248003 264.77343145 -448.1875 261.625 C-439.78462383 256.64297529 -431.36646988 251.68769957 -422.9375 246.75 C-422.32723969 246.39246643 -421.71697937 246.03493286 -421.08822632 245.66656494 C-417.97154708 243.84063579 -414.85471432 242.01496894 -411.73779297 240.18945312 C-406.2589595 236.98043483 -400.78156197 233.76896725 -395.30407715 230.55764771 C-393.49865971 229.49921425 -391.69318713 228.44087493 -389.88769531 227.38256836 C-384.40280967 224.16752516 -378.91810947 220.95216717 -373.43417358 217.73550415 C-360.65986363 210.24262006 -347.88046149 202.75877459 -335.08544922 195.30126953 C-323.61341025 188.6125712 -312.1600251 181.8920788 -300.70556641 175.17333984 C-294.03583463 171.26127509 -287.36475247 167.35151335 -280.69390869 163.44134521 C-278.88577428 162.38148439 -277.07764909 161.32160784 -275.26953125 160.26171875 C-274.67241333 159.911698 -274.07529541 159.56167725 -273.46008301 159.2010498 C-269.78448439 157.04637148 -266.10921173 154.89113827 -262.43417358 152.73550415 C-249.65986363 145.24262006 -236.88046149 137.75877459 -224.08544922 130.30126953 C-216.32129262 125.7744281 -208.56537163 121.23362914 -200.8125 116.6875 C-200.20717438 116.33255463 -199.60184875 115.97760925 -198.97817993 115.61190796 C-194.65190198 113.0749769 -190.32591863 110.53754371 -186 108 C-181.06269995 105.10382563 -176.12527352 102.20786706 -171.1875 99.3125 C-170.58177155 98.95731293 -169.97604309 98.60212585 -169.35195923 98.23617554 C-161.24069062 93.48038772 -153.12350897 88.7348569 -145 84 C-136.22398243 78.88384681 -127.45250497 73.75999489 -118.6875 68.625 C-118.07828705 68.26811096 -117.4690741 67.91122192 -116.84140015 67.54351807 C-107.9803589 62.35081639 -99.14149348 57.12203988 -90.3125 51.875 C-81.57810496 46.6852824 -72.80925111 41.56158102 -64 36.5 C-55.04529111 31.35472292 -46.13087486 26.14634296 -37.25 20.875 C-35.58142944 19.885 -35.58142944 19.885 -33.87915039 18.875 C-28.40774919 15.62579116 -22.94167405 12.36787709 -17.48046875 9.1015625 C-16.45985352 8.49328613 -15.43923828 7.88500977 -14.38769531 7.25830078 C-12.46425753 6.11194205 -10.54292383 4.96204331 -8.62402344 3.80810547 C-7.77743164 3.30424316 -6.93083984 2.80038086 -6.05859375 2.28125 C-5.31923584 1.83845703 -4.57987793 1.39566406 -3.81811523 0.93945312 C-2 0 -2 0 0 0 Z " fill="#030404" transform="translate(600,313)"/>
</svg>
